<svg xmlns="http://www.w3.org/2000/svg" width="500" height="600" style="overflow:visible">
    
    <svg viewBox="0 0 500 600" preserveAspectRatio="xMidYMin slice" width="500" height="600" style="overflow:visible">
      <g transform=" translate(250,300) scale(1) translate(-250,-300) translate(0,0)">
          <svg xmlns="http://www.w3.org/2000/svg" width="500" height="600" style="overflow:visible">
    
    <svg viewBox="0 0 500 600" preserveAspectRatio="xMidYMin slice" width="500" height="600" style="overflow:visible">
      <g transform=" translate(250,300) scale(1) translate(-250,-300) translate(0,0)">
        <svg id="Layer_2" data-name="Layer 2" xmlns="http://www.w3.org/2000/svg" viewBox="0 0 144 144"><title>thinking</title><path d="M90.27,130.68a4.75,4.75,0,0,1,.9,5.71c-1.8,3.2-14.73,1.12-14.88-6.89" fill="#202020" stroke="#000" stroke-miterlimit="10"/><path d="M58,130.91a4.75,4.75,0,0,0-.9,5.71c1.8,3.2,14.73,1.12,14.88-6.89" fill="#202020" stroke="#000" stroke-miterlimit="10"/><path d="M56.55,75.38c-6.5.48-9.56-4.34-10.84-7.23s1.12-6.43.64-8.2.67-6.09.67-6.09l.32.73c-2.14-3.32,3-14.46,6.32-13.6,2.89-4.18,12-5.65,12-5.65l15.16.29S90,39.78,92.71,40.34c0,0-3.25,16-3.69,16.2s-1.13,13.34-1.13,13.34l-22.81,2" fill="#5d6b4f" stroke="#000" stroke-miterlimit="10" stroke-width="0.5"/><path d="M80.77,35.63c-1,3.13-5.89,4.15-5.89,4.15a12.57,12.57,0,0,0-1.32-2.68l-.83,2.52c-3.59.35-7.12-1.85-7.12-4.28,0-2.63,4.7-3.13,8-3.15C78.77,32,80.8,33.3,80.77,35.63Z" fill="#5d6b4f" stroke="#000" stroke-miterlimit="10" stroke-width="0.5"/><circle cx="73.56" cy="39.54" r="1.39" fill="#c2c1c0" stroke="#000" stroke-miterlimit="10" stroke-width="0.25"/><path d="M47,53.86s-1.15,4.32-.67,6.09-1.93,5.3-.64,8.2,4.34,7.71,10.84,7.23" fill="#5d6b4f"/><path d="M47,53.86c-.2,1.18-.4,2.35-.51,3.52a9.36,9.36,0,0,0-.07,1.75,6,6,0,0,0,.11.84,2.82,2.82,0,0,1,0,1c-.2,1.22-.71,2.3-1,3.46a5.56,5.56,0,0,0,.11,3.45A14.26,14.26,0,0,0,50,73.34a10.75,10.75,0,0,0,6.58,2v.05a9.37,9.37,0,0,1-6.9-1.65,12.64,12.64,0,0,1-4.18-5.81c-.74-2.42.46-4.78.7-7.06a2.72,2.72,0,0,0,0-.81,4.08,4.08,0,0,1-.13-.92,11,11,0,0,1,.12-1.82A21.81,21.81,0,0,1,47,53.85Z"/><path d="M47.34,54.59c-2.14-3.32,3-14.46,6.32-13.6,2.89-4.18,12-5.65,12-5.65" fill="#5d6b4f"/><path d="M47.32,54.61a3.77,3.77,0,0,1-.62-2,8.62,8.62,0,0,1,.14-2.09,14.45,14.45,0,0,1,1.28-4A22.82,22.82,0,0,1,50.27,43a8.92,8.92,0,0,1,1.42-1.53,2.45,2.45,0,0,1,2-.68l-.2.07A8.74,8.74,0,0,1,56,38.52,15.32,15.32,0,0,1,59,37a24.78,24.78,0,0,1,3.23-1,25.3,25.3,0,0,1,3.33-.61v0c-1.09.26-2.17.58-3.24.92a31.87,31.87,0,0,0-3.14,1.15,20.1,20.1,0,0,0-3,1.51,9.55,9.55,0,0,0-2.46,2.15l-.08.1-.11,0a2.22,2.22,0,0,0-1.79.52,7,7,0,0,0-1.43,1.44,14.87,14.87,0,0,0-1.95,3.59,25.42,25.42,0,0,0-1.22,3.89,6.37,6.37,0,0,0,.13,4Z"/><path d="M53.66,41s4.1,7.31,4.1,10.52" fill="#5d6b4f" stroke="#000" stroke-miterlimit="10" stroke-width="0.5"/><path d="M80.77,35.63S90,39.78,92.71,40.34" fill="#5d6b4f" stroke="#000" stroke-miterlimit="10" stroke-width="0.25"/><path d="M56.55,61.31s.73,13.28,0,15.85-3.61,9.42-3.53,16-6.43,29.2-5.22,31.6,4,7.28,17,6.34,29.33,1.71,32.47-.43,3.61-3.08,3.45-5.31-6.43-25.69-7-32.46A107.82,107.82,0,0,0,90.3,75.11c-.6-1.9-1-15.8-1-15.8" fill="#5d6b4f" stroke="#000" stroke-miterlimit="10" stroke-width="0.5"/><path d="M58.27,47.74S52.05,60,59.33,64.64" fill="#5d6b4f"/><path d="M58.27,47.74a35.93,35.93,0,0,0-1.45,4.36,21.7,21.7,0,0,0-.75,4.5,11,11,0,0,0,.55,4.46,7.7,7.7,0,0,0,2.71,3.58A7.71,7.71,0,0,1,57.5,63.2a8.26,8.26,0,0,1-1.24-2,10.91,10.91,0,0,1-.69-4.63A19.65,19.65,0,0,1,56.45,52,22.3,22.3,0,0,1,58.27,47.74Z"/><line x1="73.56" y1="40.93" x2="73.56" y2="51.11" fill="#c2c1c0" stroke="#000" stroke-miterlimit="10" stroke-width="0.25"/><circle cx="71.86" cy="42.97" r="0.88" fill="#c2c1c0" stroke="#000" stroke-miterlimit="10" stroke-width="0.25"/><circle cx="71.86" cy="45.73" r="0.88" fill="#c2c1c0" stroke="#000" stroke-miterlimit="10" stroke-width="0.25"/><circle cx="71.86" cy="48.48" r="0.88" fill="#c2c1c0" stroke="#000" stroke-miterlimit="10" stroke-width="0.25"/><path d="M56.79,74.44s22,6.69,33.29-1.43l.58,2.4S76.52,84.79,56.27,77A4.07,4.07,0,0,1,56.79,74.44Z" fill="#3e4a33"/><path d="M56.78,74.41a82.2,82.2,0,0,0,8.41,1.66,69.48,69.48,0,0,0,8.51.74,39.73,39.73,0,0,0,8.5-.63A22.55,22.55,0,0,0,86.29,75,18.75,18.75,0,0,0,90,72.92l.13-.09,0,.16.61,2.39,0,.09-.08,0A31.23,31.23,0,0,1,82.52,79a38.27,38.27,0,0,1-8.83,1.34c-.75,0-1.49,0-2.24,0a20.81,20.81,0,0,1-2.23-.11L67,80l-2.2-.39c-1.47-.21-2.89-.69-4.34-1s-2.81-.95-4.21-1.45l-.05,0v0A4,4,0,0,1,56.78,74.41Zm0,0a3.28,3.28,0,0,0-.44,1.24,4.86,4.86,0,0,0,0,1.32L56.3,77c1.42.41,2.81.94,4.24,1.31a42.77,42.77,0,0,0,4.33.93l2.18.34,2.21.18a20.13,20.13,0,0,0,2.2.09c.74,0,1.48,0,2.21,0a40.25,40.25,0,0,0,8.73-1.26,31.33,31.33,0,0,0,8.19-3.25l-.06.14L90,73l.17.06a22.44,22.44,0,0,1-7.9,3.29,32.11,32.11,0,0,1-4.25.67,36.29,36.29,0,0,1-4.3.17,55.59,55.59,0,0,1-8.55-.79A60.23,60.23,0,0,1,56.8,74.46Z"/><path d="M92.17,40.22c5.59,1,5.37,10.21,8.68,19.09,0,0,3.5,10.57-4.7,10.57-3.43,0-6.78-6.67-7.57-13.82" fill="#5d6b4f" stroke="#000" stroke-miterlimit="10" stroke-width="0.5"/><path d="M87.59,63.77c4-6.75-.29-15.18-.29-15.18" fill="#5d6b4f"/><path d="M87.38,63.64a12.75,12.75,0,0,0,1.42-3.58,14.76,14.76,0,0,0,.33-3.87,20.51,20.51,0,0,0-.56-3.88,21.48,21.48,0,0,0-1.27-3.72,21.34,21.34,0,0,1,1.39,3.69,20.6,20.6,0,0,1,.69,3.89,15.56,15.56,0,0,1-.21,4,12.88,12.88,0,0,1-1.36,3.75Z"/><path d="M69.36,37.05c-.22,0-.43-.1-.65-.13a.88.88,0,0,0-.28,0,.63.63,0,0,0-.38,1,2.2,2.2,0,0,0,.87.63.11.11,0,0,0,.11,0,1.74,1.74,0,0,0,.59-1.29.14.14,0,0,0-.07-.11,1.11,1.11,0,0,0-.19-.09Z" fill="#fff"/><path d="M74.67,48.57a13.08,13.08,0,0,1-2.59-1.9,3.31,3.31,0,0,1-.68-.85.63.63,0,0,1-.08-.44,1.22,1.22,0,0,1,.28-.57.7.7,0,0,1,.42-.25s.07,0,.1-.06,0-.08-.08-.1l-.34-.16a.59.59,0,0,1-.37-.63,1.2,1.2,0,0,1,.39-.8.63.63,0,0,1,.66-.16s.12,0,.13,0,0-.09-.08-.11c-.21-.1-.41-.21-.63-.3a.61.61,0,0,1-.36-.71,1.31,1.31,0,0,1,.29-.63.66.66,0,0,1,.74-.25s.11,0,.12,0,0-.09-.07-.11l-2.14-1-2.16-1a.9.9,0,0,1-.41-.36,1,1,0,0,1-.07-1,1,1,0,0,1,.52-.54,1.06,1.06,0,0,1,.82,0l1,.47,2.77,1.29,1.58.74,1.07.49s.12,0,.14,0a5.7,5.7,0,0,0,2.3.52c.41-.06.24-.8,1.17-.67a3.14,3.14,0,0,1,1.15.43,2.42,2.42,0,0,1,.84,1c.28.58.54,1.17.82,1.75A4.74,4.74,0,0,0,82.84,44a8.3,8.3,0,0,0,2.24,1.41c.18.08.37.13.55.19a.84.84,0,0,1,.55.7,2.64,2.64,0,0,1,0,.28c0,.25,0,.51-.07.76a4.87,4.87,0,0,1-.76,2.24,3.12,3.12,0,0,1-1,1,1.08,1.08,0,0,1-1.06.06c-.22-.1-.43-.23-.64-.35a2.37,2.37,0,0,0-1.21-.38c-.5,0-1,0-1.5,0a10.33,10.33,0,0,1-1.76,0,10.57,10.57,0,0,1-2.41-.72C75.55,49,75.1,48.81,74.67,48.57ZM68.57,36.8a.75.75,0,0,0-.72.47.74.74,0,0,0,.17.84,2.39,2.39,0,0,0,.92.61.19.19,0,0,0,.13,0,2,2,0,0,0,.68-1.47.14.14,0,0,0-.11-.16L69.45,37A2,2,0,0,0,68.57,36.8Z" fill="#edcba8" stroke="#000" stroke-miterlimit="10" stroke-width="0.25"/><path d="M78,40.13s1.06-.81.94-4c-.16-.55,1.55-1.73,1.82-.14.19,1.41-.55,2.9.4,4.89" fill="#edcba8" stroke="#000" stroke-miterlimit="10" stroke-width="0.25"/><path d="M80.16,35.23s-.21,1.6,0,1.84a.51.51,0,0,0,.53.14S81,35.51,80.16,35.23Z" fill="#fff" stroke="#000" stroke-miterlimit="10" stroke-width="0.25"/><path d="M92.32,67,81.8,51.11s3.89-7.77,4.63-7.26a46.72,46.72,0,0,1,14.35,16.06" fill="#5d6b4f" stroke="#000" stroke-miterlimit="10" stroke-width="0.5"/></svg>
      </g>
    </svg>
  </svg>
  <svg xmlns="http://www.w3.org/2000/svg" width="500" height="600" style="overflow:visible">
    
    <svg viewBox="0 0 500 600" preserveAspectRatio="xMidYMin slice" width="500" height="600" style="overflow:visible">
      <g transform=" translate(250,300) scale(1) translate(-250,-300) translate(0,0)">
        <svg xmlns="http://www.w3.org/2000/svg" viewBox="0 0 144 144"><title>hmm</title><g id="Layer_1" data-name="Layer 1"><path d="M83,24.6s1.4-.6.9,1.3-1.3,4.6-2.4,3.5" fill="#edcba8" stroke="#000" stroke-miterlimit="10" stroke-width="0.25"/><path d="M63.8,25s-1.8.2-.7,2.3,1.5,2.9,2,1.9" fill="#edcba8" stroke="#000" stroke-miterlimit="10" stroke-width="0.25"/><path d="M83,24.6c0-5.6-4.8-11.4-9.5-11.3s-9.9,4.1-9.7,11.3c0,0,.4,3.5,1.5,4.9h-.1a14,14,0,0,0,1.2,3.4c.6.7.8,3.4,3.8,3.7a3.7,3.7,0,0,0,1.6,1c1.5.4,3.2.5,4.1-.2A5.7,5.7,0,0,0,77,36.3c.4.1,1.9.2,2.3-.9s2.3-3.6,1.8-5.7h0C81.8,29.2,82.7,27.8,83,24.6Z" fill="#edcba8"/><path d="M71,29.3a3.1,3.1,0,0,1-3.1,1.1,2.9,2.9,0,0,0,1.6-.2,3.2,3.2,0,0,0,1.3-1Z"/><path d="M65.2,29.5a12,12,0,0,0,1.5,3.7l.9,1.7a4.4,4.4,0,0,0,1.5,1.2,5.2,5.2,0,0,0,1.8.3h2l3.9-.3h.1a2.4,2.4,0,0,0,1.9-.3l.3-.4a1.4,1.4,0,0,1,.2-.6,4.1,4.1,0,0,0,.5-.9,9.3,9.3,0,0,0,1-2,3.3,3.3,0,0,0,.3-2.2A4.5,4.5,0,0,1,81,32a8.8,8.8,0,0,1-.9,2c-.2.3-.3.7-.5,1s-.1.3-.2.5a.9.9,0,0,1-.3.6,2.2,2.2,0,0,1-1.1.5H76.9l-4,.4h-2a4.6,4.6,0,0,1-2-.3,3.6,3.6,0,0,1-1.6-1.4,14.2,14.2,0,0,1-.8-1.8c-.1-.3-.4-.5-.5-.9l-.3-.9C65.5,30.8,65.4,30.2,65.2,29.5Z"/><path d="M80.4,30.1a2.9,2.9,0,0,0,1.2-1,4.7,4.7,0,0,0,.6-1.5,10.7,10.7,0,0,0,.6-3.1h0A14.1,14.1,0,0,0,81.7,20a12,12,0,0,0-2.6-4A8.8,8.8,0,0,0,75,13.5a8.1,8.1,0,0,0-4.6.6,10.3,10.3,0,0,0-6,7,4.3,4.3,0,0,1-.2,1.1c0,.4-.1.8-.1,1.2v1.2c.1.4.1.8.2,1.2a15.5,15.5,0,0,0,.5,2.3c.1.4.3.8.4,1.1a2.4,2.4,0,0,0,.8.9h0a1.8,1.8,0,0,1-.9-.8,3.7,3.7,0,0,1-.5-1.1,10.5,10.5,0,0,1-.6-2.4,5,5,0,0,1-.2-1.2c-.1-.4,0-.8-.1-1.2a21.7,21.7,0,0,1,.4-2.5,10.2,10.2,0,0,1,6.2-7.2,9.1,9.1,0,0,1,4.9-.4,10.8,10.8,0,0,1,4.1,2.5,12.3,12.3,0,0,1,4,8.8h0a11.6,11.6,0,0,1-.7,3.1,4.4,4.4,0,0,1-.8,1.5,2.7,2.7,0,0,1-1.3,1Z"/><path d="M71.1,29s1,1.9,2.1,2,1.6-.4,2.3-2.4" fill="#edcba8"/><path d="M71.1,29l1,1.3a2.5,2.5,0,0,0,1.4.6,1.4,1.4,0,0,0,1.3-.8,10.1,10.1,0,0,0,.7-1.5,5.2,5.2,0,0,1-.6,1.6,1.5,1.5,0,0,1-.5.6l-.9.3a1.8,1.8,0,0,1-1.5-.7A4.2,4.2,0,0,1,71.1,29Z"/><path d="M75.2,29.4s.9.5,1.3-1" fill="#edcba8"/><path d="M75.3,29.3a.6.6,0,0,0,.7-.1,1.4,1.4,0,0,0,.5-.8,1.8,1.8,0,0,1-.4.9.7.7,0,0,1-.9.2Z"/><path d="M70.4,27.9a2.3,2.3,0,0,1-.1.7c-.1.2.2,1.3,1.1.7" fill="#edcba8"/><path d="M70.4,27.9v.7c-.1.1,0,.3.1.5l.3.3h.6l-.6.3a.8.8,0,0,1-.6-.4.9.9,0,0,1,0-.7C70.3,28.3,70.3,28.1,70.4,27.9Z"/><path d="M69.6,35.7a4.2,4.2,0,0,0,2.2,1.9c1.5.4,3.2.5,4.1-.2a15.7,15.7,0,0,0,1.6-1.7" fill="#edcba8"/><path d="M69.6,35.8a5.5,5.5,0,0,0,1.7,1.4,8.6,8.6,0,0,0,2.3.5,3.8,3.8,0,0,0,2.1-.4l1.8-1.5a8.6,8.6,0,0,1-1.6,1.8,3.5,3.5,0,0,1-2.4.6,6,6,0,0,1-2.3-.6A3.5,3.5,0,0,1,69.6,35.8Z"/><path d="M78.6,31a2.9,2.9,0,0,1-1.6-.4,2.5,2.5,0,0,1-1.2-1.1H76A3.1,3.1,0,0,0,78.6,31Z"/><path d="M74.8,22l1.4.5,1.3.2a3.2,3.2,0,0,0,1.4-.3l1.2-.8h.1a5.8,5.8,0,0,1-1.2,1l-1.4.5A2.9,2.9,0,0,1,76,23a3.4,3.4,0,0,1-1.2-.9Z"/><path d="M66.7,22.5a1.9,1.9,0,0,1,1.1-.7h1.4a2.8,2.8,0,0,1,1.3.3l1.2.7h-.1a4.1,4.1,0,0,0-2.4-.6l-1.2.2-1.3.2Z"/><path d="M70.2,20.3a7.2,7.2,0,0,1,2.5-.3h2.5a10.3,10.3,0,0,1-2.5.1H70.2Z"/><path d="M69.2,21a5.2,5.2,0,0,1,1.8-.3h5.7c-1.3.2-2.6.1-3.8.2H69.2Z"/><path d="M67.7,11.2s-3-5.5,5.8-5.9c0,0,6.1.6,4.5,5" fill="#bdbdaf" stroke="#000" stroke-miterlimit="10" stroke-width="0.25"/><path d="M62.9,25.6A7.7,7.7,0,0,0,66.7,21a21.5,21.5,0,0,1,3.5-6.2,7.1,7.1,0,0,1,0,3.1,9.1,9.1,0,0,0,1.2-3.1s2.1,1.8,1,3.5c0,0,1.1-.8.8-3.5a3.4,3.4,0,0,1,1.1,2,2.7,2.7,0,0,0,.7-2s1.6,1.1,1.8,2.1,4.4,7.6,7,7.7a2.8,2.8,0,0,0,1.2-2c0-1.2-5.8-17.1-12.1-12.7C66.9,6,57.9,25,62.9,25.6Z" fill="#bdbdaf"/><path d="M62.9,25.6a6.4,6.4,0,0,0,2.4-2.2,8.3,8.3,0,0,0,1.4-3,25.3,25.3,0,0,1,3.4-5.7l.2-.3v.4a6.5,6.5,0,0,1,0,3.1h-.3a12.1,12.1,0,0,0,1.1-3v-.4l.3.2a5.2,5.2,0,0,1,1.3,1.7,2.1,2.1,0,0,1,.1,1.1,1.7,1.7,0,0,1-.3,1l-.3-.2a1.8,1.8,0,0,0,.5-.7,2.9,2.9,0,0,0,.2-.9,10.9,10.9,0,0,0,.1-1.8v-.4l.3.3a3.9,3.9,0,0,1,.8,1,2,2,0,0,1,.3,1.1h-.2a3.2,3.2,0,0,0,.7-1.9v-.2h.2a7.1,7.1,0,0,1,1.3,1.2,4.3,4.3,0,0,1,.4.7,2.6,2.6,0,0,0,.3.8,16.7,16.7,0,0,0,1.8,2.8A17.1,17.1,0,0,0,81,22.8a4.9,4.9,0,0,0,2.8,1.7h-.1c.7-.5,1.4-1.3,1.1-2.2a26.7,26.7,0,0,0-.9-2.6,33.3,33.3,0,0,0-2.5-5,16,16,0,0,0-3.5-4.2,4.4,4.4,0,0,0-2.4-1.1,3.6,3.6,0,0,0-2.4.7h-.3a3,3,0,0,0-2.6-.3,5.9,5.9,0,0,0-2.3,1.3,21.7,21.7,0,0,0-3.6,4.4A24.2,24.2,0,0,0,62,20.7a8.6,8.6,0,0,0-.5,2.7,3.2,3.2,0,0,0,.3,1.4A1.8,1.8,0,0,0,62.9,25.6Zm0,0a1.5,1.5,0,0,1-1.2-.7,3.9,3.9,0,0,1-.3-1.4,7,7,0,0,1,.4-2.9A24.7,24.7,0,0,1,64,15.3a19.3,19.3,0,0,1,3.6-4.5,5.8,5.8,0,0,1,2.5-1.5,3.3,3.3,0,0,1,2.9.4h-.2a4,4,0,0,1,2.8-.8,4.8,4.8,0,0,1,2.6,1.2,16.9,16.9,0,0,1,3.6,4.4,23.8,23.8,0,0,1,2.4,5.1,11.4,11.4,0,0,1,.9,2.6,1.9,1.9,0,0,1-.2,1.5,3.2,3.2,0,0,1-1,1h-.1A5.8,5.8,0,0,1,80.9,23a27.5,27.5,0,0,1-2.2-2.6c-.6-1-1.3-1.9-1.8-2.9l-.3-.8a1.6,1.6,0,0,0-.4-.7L75,14.9h.1a2.7,2.7,0,0,1-.7,2.1l-.3.3v-.4a3,3,0,0,0-1-1.9h.3a6.1,6.1,0,0,1,0,1.9,3.2,3.2,0,0,1-.3.9,2,2,0,0,1-.5.9l-.8.8.5-1.1a1.9,1.9,0,0,0,.2-.8,2.8,2.8,0,0,0-.1-.9A5.8,5.8,0,0,0,71.3,15l.3-.2A7.3,7.3,0,0,1,70.4,18l-.7,1.3.3-1.5a7.5,7.5,0,0,0,.1-3h.3A21.5,21.5,0,0,0,67,20.5a10.5,10.5,0,0,1-1.5,3A6.7,6.7,0,0,1,62.9,25.6Z"/><polygon points="73 9.9 72.9 14 72.8 9.9 73 9.9"/><path d="M71.3,33.5a11.6,11.6,0,0,0,4.9,0H71.3Z" stroke="#000" stroke-miterlimit="10" stroke-width="0.25"/><path d="M66.5,25.4h0Z"/><path d="M66.5,25.9l-.7.2h-.7c.2-.2.4-.2.7-.3Z"/><path d="M80.4,24.5h0Z"/><path d="M80.4,25h.7l.7.2a1.6,1.6,0,0,1-.7,0Z"/><path d="M67,24.4s.2,1.3.8,1.4,2.2.5,2.5.1.7-1.1.5-1.5S68.9,23.2,67,24.4Z" fill="#fff"/><path d="M68.8,23.9v.3a1.3,1.3,0,0,1-.1.6,1,1,0,0,1-1.4.1v-.2l-.2-.3.4-.3h.2l.7-.2h.5Z"/><path d="M68.1,23.8h.1v.2l-.2.3h-.3c-.1,0-.1-.1-.2-.2h.2Z" fill="#fff"/><path d="M79.7,24.9s-.1,1.3-.7,1.4-2.2.4-2.6.1a2.3,2.3,0,0,1-.5-1.5C76.1,24.4,77.9,23.6,79.7,24.9Z" fill="#fff"/><path d="M76.2,24.7c0,.1.1.2.2.3s.2.3.4.4,1.1-.1,1.2-.7v-.2c-.1-.1-.1-.2-.1-.4h-.7l-.7.3a.1.1,0,0,1-.1.1Z"/><path d="M76.7,24.3h0a.1.1,0,0,0,.1.1.2.2,0,0,0,.3,0,.1.1,0,0,0,.1-.1.1.1,0,0,0,0-.2h-.5Z" fill="#fff"/><path d="M75.6,25.2l.5-.4.5-.4h2.2c0,.1,0,.1.1.1l.5.3.6.2-.4-.5-.6-.2H77.7c-.2-.1-.5,0-.7,0h-.1l-.3.2h-.1l-.6.4Z"/><path d="M71.1,24.7l-.5-.3-.5-.3L69,23.9l-1.1.2-.5.2-.6.2.4-.4.6-.2,1.2-.3a5.3,5.3,0,0,1,1.2.3l.6.3Z"/><path d="M79.4,26.2a3.2,3.2,0,0,1-1.6.4,2.2,2.2,0,0,1-1.6-.4l.8.2h.8Z"/><path d="M70.7,25.8l-1.6.4a2.2,2.2,0,0,1-1.6-.4l.8.2h2.4Z"/></g></svg>
      </g>
    </svg>
  </svg>

      </g>
    </svg>
  </svg>